<svg width="1478" height="800" viewBox="0 0 1478 800" fill="none" xmlns="http://www.w3.org/2000/svg">
<g clip-path="url(#clip0_7_29)" filter="url(#filter0_g_7_29)">
<path opacity="0.05" d="M28 638C265 479.333 502 400 739 400C976 400 1213 479.333 1450 638" stroke="#328118" stroke-width="4.5" stroke-linecap="round"/>
<path opacity="0.08" d="M28 616C265 472 502 400 739 400C976 400 1213 472 1450 616" stroke="#328118" stroke-width="4.5" stroke-linecap="round"/>
<path opacity="0.12" d="M28 594C265 464.667 502 400 739 400C976 400 1213 464.667 1450 594" stroke="#328118" stroke-width="4.5" stroke-linecap="round"/>
<path opacity="0.15" d="M28 572C265 457.333 502 400 739 400C976 400 1213 457.333 1450 572" stroke="#328118" stroke-width="4.5" stroke-linecap="round"/>
<path opacity="0.19" d="M28 550C265 450 502 400 739 400C976 400 1213 450 1450 550" stroke="#328118" stroke-width="4.5" stroke-linecap="round"/>
<path opacity="0.22" d="M28 528C265 442.667 502 400 739 400C976 400 1213 442.667 1450 528" stroke="#328118" stroke-width="4.5" stroke-linecap="round"/>
<path opacity="0.25" d="M28 506C265 435.333 502 400 739 400C976 400 1213 435.333 1450 506" stroke="#328118" stroke-width="4.5" stroke-linecap="round"/>
<path opacity="0.29" d="M28 484C265 428 502 400 739 400C976 400 1213 428 1450 484" stroke="#328118" stroke-width="4.5" stroke-linecap="round"/>
<path opacity="0.32" d="M28 462C265 420.667 502 400 739 400C976 400 1213 420.667 1450 462" stroke="#328118" stroke-width="4.5" stroke-linecap="round"/>
<path opacity="0.36" d="M28 440C265 413.333 502 400 739 400C976 400 1213 413.333 1450 440" stroke="#328118" stroke-width="4.5" stroke-linecap="round"/>
<path opacity="0.39" d="M28 418C265 406 502 400 739 400C976 400 1213 406 1450 418" stroke="#328118" stroke-width="4.5" stroke-linecap="round"/>
<path opacity="0.42" d="M28 396C265 398.667 502 400 739 400C976 400 1213 398.667 1450 396" stroke="#328118" stroke-width="4.5" stroke-linecap="round"/>
<path opacity="0.46" d="M28 374C265 391.333 502 400 739 400C976 400 1213 391.333 1450 374" stroke="#328118" stroke-width="4.5" stroke-linecap="round"/>
<path opacity="0.49" d="M28 352C265 384 502 400 739 400C976 400 1213 384 1450 352" stroke="#328118" stroke-width="4.5" stroke-linecap="round"/>
<path opacity="0.53" d="M28 330C265 376.667 502 400 739 400C976 400 1213 376.667 1450 330" stroke="#328118" stroke-width="4.5" stroke-linecap="round"/>
<path opacity="0.56" d="M28 308C265 369.333 502 400 739 400C976 400 1213 369.333 1450 308" stroke="#328118" stroke-width="4.5" stroke-linecap="round"/>
<path opacity="0.59" d="M28 286C265 362 502 400 739 400C976 400 1213 362 1450 286" stroke="#328118" stroke-width="4.5" stroke-linecap="round"/>
<path opacity="0.63" d="M28 264C265 354.667 502 400 739 400C976 400 1213 354.667 1450 264" stroke="#328118" stroke-width="4.5" stroke-linecap="round"/>
<path opacity="0.66" d="M28 242C265 347.333 502 400 739 400C976 400 1213 347.333 1450 242" stroke="#328118" stroke-width="4.5" stroke-linecap="round"/>
<path opacity="0.69" d="M28 220C265 340 502 400 739 400C976 400 1213 340 1450 220" stroke="#328118" stroke-width="4.5" stroke-linecap="round"/>
<path opacity="0.73" d="M28 198C265 332.667 502 400 739 400C976 400 1213 332.667 1450 198" stroke="#328118" stroke-width="4.5" stroke-linecap="round"/>
<path opacity="0.76" d="M28 176C265 325.333 502 400 739 400C976 400 1213 325.333 1450 176" stroke="#328118" stroke-width="4.5" stroke-linecap="round"/>
<path opacity="0.8" d="M28 154C265 318 502 400 739 400C976 400 1213 318 1450 154" stroke="#328118" stroke-width="4.5" stroke-linecap="round"/>
<path opacity="0.83" d="M28 132C265 310.667 502 400 739 400C976 400 1213 310.667 1450 132" stroke="#328118" stroke-width="4.5" stroke-linecap="round"/>
<path opacity="0.86" d="M28 110C265 303.333 502 400 739 400C976 400 1213 303.333 1450 110" stroke="#328118" stroke-width="4.5" stroke-linecap="round"/>
<path opacity="0.9" d="M28 88C265 296 502 400 739 400C976 400 1213 296 1450 88" stroke="#328118" stroke-width="4.5" stroke-linecap="round"/>
<path opacity="0.93" d="M28 66C265 288.667 502 400 739 400C976 400 1213 288.667 1450 66" stroke="#328118" stroke-width="4.5" stroke-linecap="round"/>
<path opacity="0.97" d="M28 44C265 281.333 502 400 739 400C976 400 1213 281.333 1450 44" stroke="#328118" stroke-width="4.5" stroke-linecap="round"/>
</g>
<defs>
<filter id="filter0_g_7_29" x="0" y="-28" width="1478" height="856" filterUnits="userSpaceOnUse" color-interpolation-filters="sRGB">
<feFlood flood-opacity="0" result="BackgroundImageFix"/>
<feBlend mode="normal" in="SourceGraphic" in2="BackgroundImageFix" result="shape"/>
<feTurbulence type="fractalNoise" baseFrequency="2 2" numOctaves="3" seed="6031" />
<feDisplacementMap in="shape" scale="56" xChannelSelector="R" yChannelSelector="G" result="displacedImage" width="100%" height="100%" />
<feMerge result="effect1_texture_7_29">
<feMergeNode in="displacedImage"/>
</feMerge>
</filter>
<clipPath id="clip0_7_29">
<rect width="1422" height="800" fill="white" transform="translate(28)"/>
</clipPath>
</defs>
</svg>
