<svg xmlns="http://www.w3.org/2000/svg" version="1.1" xmlns:xlink="http://www.w3.org/1999/xlink" xmlns:svgjs="http://svgjs.dev/svgjs" viewBox="0 0 1422 800"><defs><linearGradient x1="50%" y1="0%" x2="50%" y2="100%" id="oooscillate-grad"><stop stop-color="#4ab96c" stop-opacity="1" offset="0%"></stop><stop stop-color="#4ab96c" stop-opacity="1" offset="100%"></stop></linearGradient></defs><g stroke-width="1" stroke="url(#oooscillate-grad)" fill="none" stroke-linecap="round"><path d="M 0 -400 Q 355.5 -100 711 400 Q 1066.5 900 1422 -400" opacity="1.00"></path><path d="M 0 -350 Q 355.5 -100 711 400 Q 1066.5 900 1422 -350" opacity="0.86"></path><path d="M 0 -300 Q 355.5 -100 711 400 Q 1066.5 900 1422 -300" opacity="0.73"></path><path d="M 0 -250 Q 355.5 -100 711 400 Q 1066.5 900 1422 -250" opacity="0.59"></path><path d="M 0 -200 Q 355.5 -100 711 400 Q 1066.5 900 1422 -200" opacity="0.46"></path><path d="M 0 -150 Q 355.5 -100 711 400 Q 1066.5 900 1422 -150" opacity="0.32"></path><path d="M 0 -100 Q 355.5 -100 711 400 Q 1066.5 900 1422 -100" opacity="0.19"></path></g></svg>