<svg xmlns="http://www.w3.org/2000/svg" version="1.1" xmlns:xlink="http://www.w3.org/1999/xlink" xmlns:svgjs="http://svgjs.dev/svgjs" viewBox="0 0 800 800"><defs><linearGradient x1="50%" y1="0%" x2="50%" y2="100%" id="ssscribble-grad"><stop stop-color="#4ab96c" stop-opacity="1" offset="0%"></stop><stop stop-color="#4ab96c" stop-opacity="1" offset="100%"></stop></linearGradient></defs><g fill="none" stroke-width="1.5" stroke="url(#ssscribble-grad)" stroke-linecap="round"><path d="M802.21 603.1C670.45 635.96 658.99 673.36 763.37 712.67 923.82 749.56 1043.35 783.61 1063.44 809.34 979.36 826.08 829.63 827.25 678.18 808.63 569.78 778.5 534.05 730.66 560.99 671.65 635.26 620.92 717.73 581.58 781.53 568.98 825.53 596 833.07 663 812.15 765.05 771.8 883.36 719.87 996.06 668.16 1074.37 612.34 1098.41 565.77 1058.11 532.91 960.92 500.05 838.88 482.46 726.6 476.3 653.5 466.04 635.91 458.18 671.18 441.59 742.49 405.56 835.04 343.9 918.32 249.26 973.98 134.82 998.17 5.17 982.39 -112.16 934.26 -182.17 860.94 -185.4 774.25 -111.22 686.14 6.01 596.4 126.27 516.55 186.25 449.13 142.08 387.17 3.84 335.92 -169.27 293.05 -286.34 252.45 -281.54 216.27 -149.78 183.4 26.88 150.54 142.95 122.56 139.25 101.19 23.62 82.08 -128.85 73.55 -235.07 78.56 -250.28 89.03 -165.03 114.76 -22.62 153.85 130.09 191.32 240.96 230.84 290.34 261.09 278.55 266.16 226.47 242.99 163.07 184.59 94.66 94.72 49.3 -18.02 31.22 -134.66 28.86 -230.06 47.39 -284.04 77.31 -279.15 112.64 -218.74 149.15 -113.14 182.01 8.89 214.87 106.1 242.53 153.07 269.17 141.73 301.22 76.11 342.47 -17.87 401.77 -112.09 476.8 -190.07 576.28 -227.61 695.34 -220.42 809.39 -173.61 908.64 -95.32 963.5 -1.52 957.19 100.55 885.29 195.57 766.78 276.35 658.59 345.62 602.81 398.57 642.1 438.78 772.41 470 943.59 495.73 1071.91 520.81 1088.29 543.47 978.88 570.24 802.21 603.1Q802.21 603.1 802.21 603.1" opacity="0.66"></path><path d="M768.21 625.76C642.29 656.28 617.94 684.56 697.84 708.81 906.64 738.07 945.18 736.06 749.41 694.17 613.44 657.93 522.37 613.1 486.67 567.9 503.63 538.62 553.57 527.35 612.22 544.5 676.04 595.31 720.37 677.43 741.01 782.5 749.16 892.29 737.97 989 714.87 1050.05 687.11 1062.13 655.98 1018.67 625.47 926.92 594.96 813.67 566.5 706.7 536.71 630.58 502.27 600.13 457.95 616.3 396.92 668.49 323.4 747.19 228.82 827.87 117.97 893.48 12.29 939.84 -81.44 954.04 -138.4 938.08 -142.68 897.29 -87.79 837.05 16.39 767.34 126.06 689.25 207.34 613.3 215.86 544.63 134.76 476.9 -12.63 418.66 -168.19 370.36 -259.86 323.2 -241.69 284.26 -115.78 253.75 70.23 198.61 -204.5 229.17 -92.23 273.08 46.31 295.77 180.4 312.2 279.5 313 333.82 288.98 341.27 238.6 318.33 160.48 270.86 63.1 223.16 -44.93 187.93 -146 155.65 -220.56 142.64 -254.12 147.22 -235.45 155.17 -171.12 175.52 -70.35 206.04 42.89 236.55 134.66 275.78 184.32 325.38 184.03 378.34 134.76 446.86 55.43 532.02 -31.99 620.13 -114.7 718.08 -169.46 812.58 -188.51 882.54 -173.89 918.9 -126.45 904.57 -57.18 845.47 28 747.56 116.64 640.78 199.9 574.23 279.89 573.71 348.01 656.99 404.05 800.62 453.98 954.99 495.24 1051.75 530.65 1045.13 563.95 933.13 595.25 768.21 625.76Q768.21 625.76 768.21 625.76" opacity="0.86"></path><path d="M734.21 577.84C614.79 606.01 579.72 626.6 636.09 638.95 758.75 650.01 888.6 650.71 974.29 640.02 991.74 626.94 933.25 602.62 824.24 569.52 691.7 539.9 572.42 509.78 487.81 487.08 443.18 483.29 438.28 499.73 458.78 542.1 500.72 609.87 543.41 699.49 575.93 801.13 614.75 938.45 608.2 1001.74 571.66 892.92 543.49 788.49 505.24 687.58 456.11 610.29 404.55 569.52 338.56 568.46 258.31 601.23 176.97 662.51 87.9 733.73 2.55 800.36 -61.36 858.96 -96.89 894.91 -89.18 906.17 -41.48 896.98 44.39 866.78 147.6 822.48 227.29 766.63 260.52 706.3 222.42 647.43 116.09 585.93 -29.79 530.41 -163.32 483.32 -230.56 436.22 -201.19 397.98 -81.78 369.81 122.34 324.11 -168.05 346.82 -135.28 366.24 -36.67 367.13 86.67 356.9 204.5 329.18 303.8 281.01 367.61 211.67 398.37 123.74 400.47 27.79 385.6 -68.68 366.88 -150.61 340.23 -204.04 322.79 -219.02 319.36 -189.12 315.9 -122.71 327.81 -27.52 355.97 76.89 384.14 162.95 427.24 214.24 483.81 223.49 540.36 189.72 609.05 126.15 684.5 49.28 752.04 -31.71 813.29 -96.07 854.61 -134.52 867.26 -147.56 843.88 -130.62 781.5 -89.91 700.59 -30.29 610.63 40.25 541.35 113.28 525.99 189.8 575.09 260.5 687.38 322.4 830.13 381.89 960.15 432.44 1025.49 474.5 999.35 515.27 887.09 549.68 734.21 577.84Q734.21 577.84 734.21 577.84" opacity="0.80"></path><path d="M700.21 474.32C587.93 500.14 544.38 515.93 578.88 522.01 677.58 527.77 797.95 523.53 897.7 510.25 952.99 497.84 944.4 478.99 880.94 457.56 778.04 443.69 662 435.13 555.99 438.15 468.2 459.04 411.26 498.8 382.29 559.25 377.49 636.13 387.43 725.82 401.33 818.55 430.08 932.21 437.59 962.3 406.41 858.92 380.59 763.35 340.9 669.17 289.11 592.48 237.85 544.03 176.46 528.17 110.17 542.42 51.53 584.45 -0.92 641.14 -35.91 701.05 -46.74 761.95 -26.87 809.65 27.08 839.78 99.24 856.05 184.67 853.4 260.69 835.49 297.26 806.26 282.7 768.24 208.48 726.6 89.81 680.47 -45.25 635.82 -153.91 595.93 -198.38 555.22 -160.06 521.12 -47.78 495.3 92.78 469.48 208.31 453.16 260.13 445.18 234.39 436.36 148.26 434.05 37.7 435.44 -67.71 432.33 -130.03 427.84 -136.76 417.28 -91.16 395.4 -5.17 360.98 98.44 310.87 208.3 246.91 303.23 168.6 375.5 80.82 428.09 -5.97 459.02 -85.81 475.94 -146.78 481.1 -179.96 483.68 -178.81 490.46 -140.33 494.8 -73.61 508.62 15.32 534.44 110.88 560.26 190.97 596.85 242.83 641.21 260.05 683.12 240.48 727.51 192.98 767.09 129.35 794.93 55.54 806.52 -10.99 793.71 -60.99 761.24 -94.55 703.38 -103.71 627.36 -90.76 557.58 -59.93 502.21 -14.31 483.48 39.34 517.1 100.57 602.58 161.94 726.92 219.09 856.41 277.12 957.24 328.33 992.94 371.26 951.08 413.87 840.79 448.5 700.21 474.32Q700.21 474.32 700.21 474.32" opacity="0.13"></path><path d="M666.15 347.57C561.65 371.04 511.94 385.25 526.92 391.07 600.53 397.33 704.07 396.27 805.33 389.89 884.39 386.43 917.24 381.33 901.56 378.45 843.83 384.31 757.24 398.52 660.39 425.08 560.76 465.71 475.09 521.47 408.87 591.42 358.63 669.53 326.62 752.76 306.92 832.4 293.79 921.13 267.52 922.1 237.03 824.93 213.56 738.24 181.75 651.38 144.32 576.94 109.16 523.5 73.1 495.75 42.24 493.41 21.26 516.1 14.61 555.29 28.68 602.65 58.72 657.16 110.69 706.55 179.55 745.61 275.02 786.62 301.98 787.21 178.77 757.55 60.31 730.84 -56.59 701.44 -139.26 672.35 -163.29 642.11 -118.34 614.48 -13.84 591.01 114.21 567.54 225.23 549.33 287.88 535.31 287.68 520.13 231.35 506.83 141.77 492.87 38.92 474.28 -44.25 450.76 -90.37 419.24 -96.58 379.08 -60.69 327.73 4.74 264.78 91.71 194.96 183.61 117.74 268.68 38.78 348.56 -33.01 412.77 -93.24 461.85 -133.14 502.41 -148.01 533.01 -133.61 558.05 -89.24 580.33 -23.85 602.22 58.24 625.69 144.93 649.16 218.78 673.1 270.18 695.09 293.67 714.32 286.65 726.42 254.7 726.55 205.83 718.15 143.4 692.6 81.22 648.9 27.55 600.01 -17.95 541.8 -45.88 485.59 -55.75 450.91 -51.55 442.84 -32.06 473.47 -1.74 544.02 37.31 648.25 81.07 768.3 125.2 875.09 172.25 944.8 216.01 954.08 254.02 900.51 292.46 794.26 324.09 666.21 347.56Q666.15 347.57 666.15 347.57" opacity="0.37"></path><path d="M632.73 237.09C509.45 265.76 570.1 297.73 702.84 307.38 790.64 316.87 851.06 328.48 875.7 345.11 865.81 369.3 823.01 402.34 758.59 446.01 678.11 498.7 595.08 561.68 518.39 632.48 445.48 704.83 385.43 776.49 338.17 840.35 297.35 889.58 265.61 919.22 239.82 923.79 216.22 903.87 194.55 858.2 173.43 790.82 152.31 713.01 132.72 633.99 116.48 563.31 99.09 489.3 123.23 470.22 176.22 512.02 220.35 553.75 273.05 596.28 325.85 634.67 362.58 672.08 380.33 700.17 368.23 717.89 321.59 730.69 242.22 733.65 138.93 728.37 31.54 719.61 -62.13 705.3 -119.03 687.43 -125.19 668.52 -75.62 648.01 20.73 626.88 136.11 605.76 240.57 585.02 309.7 564.09 330.35 542.12 302.72 518 239.6 490.16 152.65 458.83 66.96 421.09 -0.44 375.73 -45.02 325.45 -56.06 267.03 -37.06 201.94 6.85 135.86 67.9 68.28 135.71 4.55 210.18 -48.81 279.87 -88.62 340.35 -108.95 398.72 -108.33 446.67 -83.89 484.55 -36.26 520.98 26.24 549.64 100.98 570.76 178.78 598.18 271.16 605.09 319.01 578.57 276.46 554.69 228.08 519.8 175.36 477.89 125.01 442.64 76.21 411.91 38.27 395.68 13.26 404.37 -2.71 440.46 -5.43 507.04 2.93 596.44 18.86 701.08 42.04 803.51 69.16 882.11 99.8 921.77 130.88 909.27 159.93 848.29 189.8 748.11 215.97 632.73 237.09Q632.73 237.09 632.73 237.09" opacity="0.94"></path><path d="M598.14 177.71C510.85 196.49 455.65 213.48 440.54 229.24 466.91 245.82 524.71 262.76 599.31 281.49 681.88 303.16 753.18 329.14 803.2 360.95 831.31 397.82 831.62 442.21 808.5 494.14 766.06 550.18 710.89 611.77 650.95 675.87 585.43 737.06 523.71 793.84 469.49 840.85 416.3 873.96 371.91 889.79 336.64 885.01 302.29 861.33 275.63 817.59 256.85 756.89 238.07 687.95 228.06 617.19 227 551.65 226.86 496.04 237.08 454.17 257.74 427.69 279.41 417.49 310.21 421.26 346.8 435.73 377.79 461.18 406 490.96 423.83 521.06 422.34 554.14 399.77 582.71 352.1 604.75 282.53 625.4 194.39 638.36 98.06 643.64 -24.54 645.53 -58.84 618.01 54.14 592.04 156.67 573.26 253.12 550.99 325.23 525.27 362.12 498.89 360.42 467.9 325.83 431.89 263.81 394.06 191.06 350.18 121.28 300.59 58.05 249.61 15.01 194.08 -5.37 136.39 -6.72 81.68 11.86 29.64 44.25 -15.36 88.16 -49.38 136.96 -69.98 184.95 -73.56 236 -60.83 281.59 -29.65 319.09 18.71 356.8 77 385.67 143.95 404.44 212.89 423.23 273.59 431.04 321.14 428.74 352.06 426.66 364.09 415.23 358.94 396.72 339.59 381.28 306.34 363.4 266.41 348.42 224.77 344.97 180.22 353.33 140.9 379.28 109.46 424.27 82.15 489.57 64.72 572.34 56.79 661.68 53.92 751.27 58.86 827.06 69.73 875.43 83.54 887.83 100.77 858.2 119.59 793.35 139.25 700.72 158.93 598.2 177.7Q598.14 177.71 598.14 177.71" opacity="0.56"></path><path d="M564.2 187.73C432.43 220.59 416.24 262.12 500.45 315.28 639.72 375.57 747.67 457.19 786.65 557.7 766.76 659.56 698.51 760.25 621.44 832 533.33 856.75 466.15 820.09 433.29 722.88 400.43 600.84 404.99 487.52 436.15 411.11 456.28 380.71 473.25 389.72 450.07 418.59 368.02 466.53 225.21 505.07 61.86 522.06 -46.43 537.87 -43.56 529.9 88.2 497.03 264.87 464.17 382.89 409.54 393.33 336.78 305.27 262.84 185.98 173.02 97.6 82 45.37 10.06 51.89 -33.79 90.84 -27.48 148.34 24.83 202.81 124.84 235.67 246.88 268.53 344.09 276.67 394.07 276.12 393.41 294.12 345.74 338.88 279.9 434.18 221.12 565.63 163.68 719.78 133.34 831.92 130 845.57 133.78 740.87 154.87 564.2 187.73Q564.2 187.73 564.2 187.73" opacity="0.57"></path><path d="M530.15 264.09C410.77 292.25 372.46 336.97 413.93 396.32 515.27 458.12 620.56 536.3 691.86 622.93 733.73 702.17 730.54 772.01 701.71 812.86 658.87 817.02 616.21 774.97 588.04 688.93 559.88 584.5 548.87 482.9 542.9 404.65 522.92 356.31 482.15 337.99 403.36 339.83 295.15 360.86 159.98 382.4 38 392.62 -24.11 405.41 2.77 399.84 122.15 371.68 275.05 343.51 393.95 295.41 438.89 233.81 405.78 174.78 326.68 109.28 245.44 51.34 166.25 12.58 124.16 1.02 117.09 28.7 122.85 86.3 145.35 176.47 173.51 280.89 201.68 366.95 232.84 420.43 275.89 436.93 331.76 416.72 417.8 376.76 533.91 334.43 706.56 267.6 736.82 231.44 530.21 264.08Q530.15 264.09 530.15 264.09" opacity="0.07"></path><path d="M496.15 382.94C391.65 406.41 339.92 446.75 345.36 499.51 401.73 551.6 478.62 613.31 547.73 675.71 631.2 747.83 651.62 750.48 620.77 654.93 597.3 568.24 567.34 480.95 526.08 407.06 476.38 350.19 403.35 313.44 307.31 293.47 207.45 288.33 105.66 288.72 32.08 286.34 9.43 287.64 51.65 278.67 156.15 255.2 284.21 231.72 395.45 195.97 460.99 154 474.07 115.71 444.48 78.68 396.69 53.06 332.64 42.26 282.3 54.11 256.49 93.77 234.08 150.45 234.94 228.21 258.41 314.89 281.87 388.75 325.72 441.69 388.81 469.54 455.29 471.64 542.26 456.76 637.08 435.29 715.64 403.66 770.14 378.57 774.28 367.17 725.96 355.08 624.25 359.46 496.21 382.93Q496.15 382.94 496.15 382.94" opacity="0.91"></path><path d="M462.42 507.07C375.05 525.84 318.67 556.2 298.6 593.77 313.76 629.49 351.08 668.48 394.17 703.8 446.38 730.41 486.68 745.25 507.97 741.78 527.72 722.49 528.71 681.56 509.93 620.88 491.15 551.93 454.38 480.9 402.09 416.65 348.26 360.34 278.66 315.67 201.84 282.99 105.51 250.71 78.67 209.66 190.42 183.93 292.95 165.15 389.19 143.28 460.77 122.05 509.8 97.65 469.41 111.11 438.64 166.03 418.92 216.51 416.17 279.93 434.95 348.88 453.73 409.56 492.26 458.1 544.52 491.15 594.2 508.38 650.76 513.47 701.09 511.47 733.1 500.76 740.3 491.07 711.4 487.9 653.58 482.87 564.95 488.29 462.42 507.07Q462.42 507.07 462.42 507.07" opacity="0.53"></path><path d="M428.15 597.81C308.77 625.97 264.12 668.96 275.08 699.09 325.31 707.91 356.22 672.97 328.06 586.93 299.89 482.49 217.97 379.56 130.83 306.36 82.96 248.72 104.77 208.46 224.15 180.29 377.06 152.12 497.64 141.39 552.55 162.11 562.69 198.39 560.99 278.49 589.16 382.93 617.33 468.97 670.03 526.74 696.8 554.84 678.81 561.63 581.06 569.64 428.15 597.81Q428.15 597.81 428.15 597.81" opacity="0.34"></path><path d="M394.21 626.65C252.78 664.21 230.16 660.13 192.61 552.92 155.05 413.47 116.78 282.84 258.21 245.28 457.3 207.73 582.75 277.47 620.31 416.92 657.86 524.13 593.3 589.1 394.21 626.65Q394.21 626.65 394.21 626.65" opacity="0.52"></path></g></svg>