<svg xmlns="http://www.w3.org/2000/svg" version="1.1" xmlns:xlink="http://www.w3.org/1999/xlink" xmlns:svgjs="http://svgjs.dev/svgjs" viewBox="0 0 2400 800" opacity="1"><defs><linearGradient x1="50%" y1="0%" x2="50%" y2="100%" id="sssurf-grad"><stop stop-color="#4ab96c" stop-opacity="1" offset="0%"></stop><stop stop-color="#000" stop-opacity="1" offset="100%"></stop></linearGradient></defs><g fill="url(#sssurf-grad)" transform="matrix(1,0,0,1,9.109130859375,258.50621604919434)"><path d="M-10,10C37.53787878787879,13.75,125.18939393939395,33.416666666666664,218.1818181818182,28C311.17424242424244,22.583333333333336,345.4545454545455,-16.625,436.3636363636364,-16C527.2727272727273,-15.375,563.6363636363636,31.208333333333332,654.5454545454545,31C745.4545454545454,30.791666666666668,781.8181818181818,-16.166666666666668,872.7272727272727,-17C963.6363636363637,-17.833333333333332,1000.0000000000001,23.458333333333332,1090.909090909091,27C1181.818181818182,30.541666666666668,1218.181818181818,-0.41666666666666663,1309.090909090909,0C1400,0.41666666666666663,1436.3636363636363,29,1527.2727272727273,29C1618.1818181818182,29,1654.5454545454545,-1.875,1745.4545454545455,0C1836.3636363636365,1.875,1872.7272727272727,39.041666666666664,1963.6363636363637,38C2054.5454545454545,36.958333333333336,2090.909090909091,-4.375,2181.818181818182,-5C2272.727272727273,-5.625,2302.462121212121,-49.375,2400,35C2497.537878787879,119.375,3254.1666666666665,219.79166666666669,2650,400C2045.8333333333335,580.2083333333333,156.25,795.8333333333334,-500,900" transform="matrix(1,0,0,1,0,25)" opacity="0.05"></path><path d="M-10,10C37.53787878787879,13.75,125.18939393939395,33.416666666666664,218.1818181818182,28C311.17424242424244,22.583333333333336,345.4545454545455,-16.625,436.3636363636364,-16C527.2727272727273,-15.375,563.6363636363636,31.208333333333332,654.5454545454545,31C745.4545454545454,30.791666666666668,781.8181818181818,-16.166666666666668,872.7272727272727,-17C963.6363636363637,-17.833333333333332,1000.0000000000001,23.458333333333332,1090.909090909091,27C1181.818181818182,30.541666666666668,1218.181818181818,-0.41666666666666663,1309.090909090909,0C1400,0.41666666666666663,1436.3636363636363,29,1527.2727272727273,29C1618.1818181818182,29,1654.5454545454545,-1.875,1745.4545454545455,0C1836.3636363636365,1.875,1872.7272727272727,39.041666666666664,1963.6363636363637,38C2054.5454545454545,36.958333333333336,2090.909090909091,-4.375,2181.818181818182,-5C2272.727272727273,-5.625,2302.462121212121,-49.375,2400,35C2497.537878787879,119.375,3254.1666666666665,219.79166666666669,2650,400C2045.8333333333335,580.2083333333333,156.25,795.8333333333334,-500,900" transform="matrix(1,0,0,1,0,50)" opacity="0.21"></path><path d="M-10,10C37.53787878787879,13.75,125.18939393939395,33.416666666666664,218.1818181818182,28C311.17424242424244,22.583333333333336,345.4545454545455,-16.625,436.3636363636364,-16C527.2727272727273,-15.375,563.6363636363636,31.208333333333332,654.5454545454545,31C745.4545454545454,30.791666666666668,781.8181818181818,-16.166666666666668,872.7272727272727,-17C963.6363636363637,-17.833333333333332,1000.0000000000001,23.458333333333332,1090.909090909091,27C1181.818181818182,30.541666666666668,1218.181818181818,-0.41666666666666663,1309.090909090909,0C1400,0.41666666666666663,1436.3636363636363,29,1527.2727272727273,29C1618.1818181818182,29,1654.5454545454545,-1.875,1745.4545454545455,0C1836.3636363636365,1.875,1872.7272727272727,39.041666666666664,1963.6363636363637,38C2054.5454545454545,36.958333333333336,2090.909090909091,-4.375,2181.818181818182,-5C2272.727272727273,-5.625,2302.462121212121,-49.375,2400,35C2497.537878787879,119.375,3254.1666666666665,219.79166666666669,2650,400C2045.8333333333335,580.2083333333333,156.25,795.8333333333334,-500,900" transform="matrix(1,0,0,1,0,75)" opacity="0.37"></path><path d="M-10,10C37.53787878787879,13.75,125.18939393939395,33.416666666666664,218.1818181818182,28C311.17424242424244,22.583333333333336,345.4545454545455,-16.625,436.3636363636364,-16C527.2727272727273,-15.375,563.6363636363636,31.208333333333332,654.5454545454545,31C745.4545454545454,30.791666666666668,781.8181818181818,-16.166666666666668,872.7272727272727,-17C963.6363636363637,-17.833333333333332,1000.0000000000001,23.458333333333332,1090.909090909091,27C1181.818181818182,30.541666666666668,1218.181818181818,-0.41666666666666663,1309.090909090909,0C1400,0.41666666666666663,1436.3636363636363,29,1527.2727272727273,29C1618.1818181818182,29,1654.5454545454545,-1.875,1745.4545454545455,0C1836.3636363636365,1.875,1872.7272727272727,39.041666666666664,1963.6363636363637,38C2054.5454545454545,36.958333333333336,2090.909090909091,-4.375,2181.818181818182,-5C2272.727272727273,-5.625,2302.462121212121,-49.375,2400,35C2497.537878787879,119.375,3254.1666666666665,219.79166666666669,2650,400C2045.8333333333335,580.2083333333333,156.25,795.8333333333334,-500,900" transform="matrix(1,0,0,1,0,100)" opacity="0.53"></path><path d="M-10,10C37.53787878787879,13.75,125.18939393939395,33.416666666666664,218.1818181818182,28C311.17424242424244,22.583333333333336,345.4545454545455,-16.625,436.3636363636364,-16C527.2727272727273,-15.375,563.6363636363636,31.208333333333332,654.5454545454545,31C745.4545454545454,30.791666666666668,781.8181818181818,-16.166666666666668,872.7272727272727,-17C963.6363636363637,-17.833333333333332,1000.0000000000001,23.458333333333332,1090.909090909091,27C1181.818181818182,30.541666666666668,1218.181818181818,-0.41666666666666663,1309.090909090909,0C1400,0.41666666666666663,1436.3636363636363,29,1527.2727272727273,29C1618.1818181818182,29,1654.5454545454545,-1.875,1745.4545454545455,0C1836.3636363636365,1.875,1872.7272727272727,39.041666666666664,1963.6363636363637,38C2054.5454545454545,36.958333333333336,2090.909090909091,-4.375,2181.818181818182,-5C2272.727272727273,-5.625,2302.462121212121,-49.375,2400,35C2497.537878787879,119.375,3254.1666666666665,219.79166666666669,2650,400C2045.8333333333335,580.2083333333333,156.25,795.8333333333334,-500,900" transform="matrix(1,0,0,1,0,125)" opacity="0.68"></path><path d="M-10,10C37.53787878787879,13.75,125.18939393939395,33.416666666666664,218.1818181818182,28C311.17424242424244,22.583333333333336,345.4545454545455,-16.625,436.3636363636364,-16C527.2727272727273,-15.375,563.6363636363636,31.208333333333332,654.5454545454545,31C745.4545454545454,30.791666666666668,781.8181818181818,-16.166666666666668,872.7272727272727,-17C963.6363636363637,-17.833333333333332,1000.0000000000001,23.458333333333332,1090.909090909091,27C1181.818181818182,30.541666666666668,1218.181818181818,-0.41666666666666663,1309.090909090909,0C1400,0.41666666666666663,1436.3636363636363,29,1527.2727272727273,29C1618.1818181818182,29,1654.5454545454545,-1.875,1745.4545454545455,0C1836.3636363636365,1.875,1872.7272727272727,39.041666666666664,1963.6363636363637,38C2054.5454545454545,36.958333333333336,2090.909090909091,-4.375,2181.818181818182,-5C2272.727272727273,-5.625,2302.462121212121,-49.375,2400,35C2497.537878787879,119.375,3254.1666666666665,219.79166666666669,2650,400C2045.8333333333335,580.2083333333333,156.25,795.8333333333334,-500,900" transform="matrix(1,0,0,1,0,150)" opacity="0.84"></path><path d="M-10,10C37.53787878787879,13.75,125.18939393939395,33.416666666666664,218.1818181818182,28C311.17424242424244,22.583333333333336,345.4545454545455,-16.625,436.3636363636364,-16C527.2727272727273,-15.375,563.6363636363636,31.208333333333332,654.5454545454545,31C745.4545454545454,30.791666666666668,781.8181818181818,-16.166666666666668,872.7272727272727,-17C963.6363636363637,-17.833333333333332,1000.0000000000001,23.458333333333332,1090.909090909091,27C1181.818181818182,30.541666666666668,1218.181818181818,-0.41666666666666663,1309.090909090909,0C1400,0.41666666666666663,1436.3636363636363,29,1527.2727272727273,29C1618.1818181818182,29,1654.5454545454545,-1.875,1745.4545454545455,0C1836.3636363636365,1.875,1872.7272727272727,39.041666666666664,1963.6363636363637,38C2054.5454545454545,36.958333333333336,2090.909090909091,-4.375,2181.818181818182,-5C2272.727272727273,-5.625,2302.462121212121,-49.375,2400,35C2497.537878787879,119.375,3254.1666666666665,219.79166666666669,2650,400C2045.8333333333335,580.2083333333333,156.25,795.8333333333334,-500,900" transform="matrix(1,0,0,1,0,175)" opacity="1"></path></g></svg>